# xmcd
#
# Track frame offsets:
#	150
#	17898
#	31619
#	45965
#	57948
#	70485
#	83716
#	92798
#	105170
#	120490
#	133251
#	154968
#	161739
#	171244
#
# Disc length: 2436 seconds
#
# Revision: 1
# Processed by: cddbd v1.5.2PL0 Copyright (c) Steve Scherf et al.
# Submitted via: audiograbber 1.83.01
#
DISCID=ae09820e
DTITLE=John Williamson - Road Thru The Heart
DYEAR=1985
DGENRE=Country
TTITLE0=The Dusty Road We Know
TTITLE1=Old Lou
TTITLE2=Go To Nashville
TTITLE3=The Shed
TTITLE4=You And My Guitar
TTITLE5=The Least I Can Do (Song For Ethiopia)
TTITLE6=I Had A Dream
TTITLE7=Someday An Eagle
TTITLE8=See You Next Year, Mate
TTITLE9=Alice Springs
TTITLE10=Coober Pedy
TTITLE11=Stan Coster (Poem)
TTITLE12=Short Of A Quid
TTITLE13=Goodbye Again
EXTD=
EXTT0=
EXTT1=
EXTT2=
EXTT3=
EXTT4=
EXTT5=
EXTT6=
EXTT7=
EXTT8=
EXTT9=
EXTT10=
EXTT11=
EXTT12=
EXTT13=
PLAYORDER=
